PathFileType	3	(X/Y/Z)	D:\VICON_DB\Goncalves\Pilot01\09-03-2026\bw_sq_120_01.trc
DataRate	CameraRate	NumFrames	NumMarkers	Units	OrigDataRate	OrigDataStartFrame	OrigNumFrames
200.0	200.0	4	34	mm	200.0	548	730	
Frame#	Time	LASI			RASI			LPSI			RPSI			LTHI			LTHAP			LTHAD			LKNE			LKNM			LTIB			LTIAP			LTIAD			LANK			LMED			LHEE			LTOE			LFMH			LSMH			LVMH			RTHI			RTHAP			RTHAD			RKNE			RKNM			RTIB			RTIAP			RTIAD			RANK			RMED			RHEE			RTOE			RFMH			RSMH			RVMH			
		X1	Y1	Z1	X2	Y2	Z2	X3	Y3	Z3	X4	Y4	Z4	X5	Y5	Z5	X6	Y6	Z6	X7	Y7	Z7	X8	Y8	Z8	X9	Y9	Z9	X10	Y10	Z10	X11	Y11	Z11	X12	Y12	Z12	X13	Y13	Z13	X14	Y14	Z14	X15	Y15	Z15	X16	Y16	Z16	X17	Y17	Z17	X18	Y18	Z18	X19	Y19	Z19	X20	Y20	Z20	X21	Y21	Z21	X22	Y22	Z22	X23	Y23	Z23	X24	Y24	Z24	X25	Y25	Z25	X26	Y26	Z26	X27	Y27	Z27	X28	Y28	Z28	X29	Y29	Z29	X30	Y30	Z30	X31	Y31	Z31	X32	Y32	Z32	X33	Y33	Z33	X34	Y34	Z34	
548	2.735	179.37527	846.04791	-1084.8271	181.73686	857.59039	-1346.3024				362.32993	937.44067	-1242.2198	175.04213	695.89288	-1012.4926	207.98782	753.45111	-1021.0806	200.94064	634.5564	-968.66357	187.37952	472.44055	-955.62787				238.99596	280.90628	-928.85089	156.26489	344.39996	-969.88995	197.32626	245.71597	-943.17017	287.0701	70.909752	-943.95953				322.63113	66.168121	-999.82837	206.26874	71.638992	-950.0921	149.40646	45.549149	-973.36115				169.23387	24.871906	-895.84778	192.52827	630.16058	-1440.8208	185.70508	747.85425	-1392.9561	146.36101	670.72241	-1391.6288	184.34267	487.80624	-1439.1555				208.00455	294.61859	-1473.2582	149.69154	335.3269	-1426.6552	168.80151	255.11992	-1431.8107	277.69986	63.512222	-1456.793				307.61588	61.723492	-1408.6631	185.02383	68.873665	-1453.6565	132.75797	49.508614	-1434.7772				155.87767	17.19578	-1504.6797
549	2.74	177.82967	847.91772	-1084.5862	180.10011	859.36774	-1346.0999				360.9899	938.6778	-1242.0977	174.07816	696.32751	-1012.6591	206.61464	754.30707	-1021.007	200.45544	635.03162	-969.0473	188.20744	472.7811	-956.59991				239.72725	281.24866	-929.50433	157.25888	344.84818	-970.75977	197.94092	246.14778	-943.7066	287.12122	71.000214	-943.98608				322.6846	66.114777	-999.89819	206.27019	71.650131	-950.14514	149.41582	45.544388	-973.37915				169.22804	24.877731	-895.86115	192.28247	630.75934	-1440.4426	184.44818	748.67664	-1392.7346	145.6987	671.04407	-1391.4297	185.46793	488.2674	-1438.4835				209.0584	295.04501	-1472.8083	150.93779	335.85461	-1426.1223	169.64977	255.60728	-1431.4694	277.78937	63.574837	-1456.7318				307.69763	61.686794	-1408.6409	185.04356	68.87542	-1453.6472	132.76207	49.508057	-1434.7648				155.8782	17.19054	-1504.6841
550	2.745	176.2861	849.73975	-1084.3384	178.45863	861.09302	-1345.8922				359.647	939.85364	-1241.9817	173.11559	696.73749	-1012.8301	205.24385	755.13306	-1020.9333	199.96843	635.48108	-969.43896	189.02728	473.10928	-957.57117				240.4523	281.58478	-930.15662	158.2408	345.28339	-971.62744	198.55099	246.57187	-944.24298	287.17245	71.092506	-944.01367				322.7381	66.060463	-999.9682	206.27213	71.661224	-950.19873	149.42493	45.539303	-973.39862				169.22227	24.884319	-895.87537	192.03091	631.32684	-1440.0593	183.18642	749.46436	-1392.5162	145.03139	671.33624	-1391.2336	186.58353	488.71274	-1437.8044				210.10359	295.46426	-1472.351	152.17119	336.37152	-1425.5813	170.49104	256.08704	-1431.1211	277.87836	63.638969	-1456.6653				307.77905	61.649521	-1408.6184	185.06316	68.878487	-1453.6335	132.76669	49.507702	-1434.7494				155.87906	17.187326	-1504.6866
551	2.75	174.74442	851.51404	-1084.0867	176.81355	862.76636	-1345.6812				358.30157	940.96912	-1241.8726	172.15379	697.12408	-1013.0069	203.87476	755.93005	-1020.8629	199.4791	635.90625	-969.83838	189.83873	473.42566	-958.5401				241.16974	281.9137	-930.80634	159.21022	345.70544	-972.49219	199.1554	246.98753	-944.77887	287.22391	71.185966	-944.04199				322.7919	66.004829	-1000.0379	206.27463	71.672157	-950.2525	149.43346	45.533752	-973.41943				169.21648	24.891451	-895.8905	191.77025	631.8642	-1439.6703	181.91878	750.21741	-1392.2999	144.35794	671.59918	-1391.0375	187.68629	489.14255	-1437.1193				211.13828	295.87579	-1471.8861	153.3902	336.87695	-1425.0325	171.32405	256.55829	-1430.7664	277.96652	63.704224	-1456.5938				307.85922	61.611946	-1408.5952	185.08247	68.88279	-1453.6154	132.77176	49.507336	-1434.731				155.88017	17.186127	-1504.687
